# File created by Blade
# Date/Time:  Wed Jan 21 19:19:18 2015
# Frame Rate: 120.000 fps
#------------------------------------------------------
:FULLY-SPECIFIED
:DEGREES
978
root -0.866498 14.575568 -3.629588 52.224411 -40.034692 20.944665
RightUpLeg -181.662668 -26.462139 33.475459
RightLeg 100.526528 -0.000000 -0.000000
RightFoot 2.397881 33.525800 33.622312
RightToeBase 33.125287 -0.000000 -0.000000
LeftUpLeg -27.955365 26.066134 18.968628
LeftLeg 19.292753 -0.000000 -0.000000
LeftFoot -35.829980 19.176033 -24.736695
LeftToeBase 10.665579 -0.000000 -0.000000
Spine -29.401351 11.951567 20.794561
RightShoulder -6.599413 25.102355 -21.310440
RightArm 10.825934 -44.004778 54.302802
RightForeArm -6.019942 -0.000000 3.877882
RightHand 53.594209 0.000000 -40.004862
RightHandThumb1 -24.326973 -0.000000 -32.862282
LeftShoulder -14.513900 -18.274470 66.234532
LeftArm 66.832394 -41.413148 -19.002923
LeftForeArm 20.277412 -0.000000 19.080022
LeftHand -19.710454 -0.000000 13.073854
LeftHandThumb1 -26.253704 0.000000 33.147579
Head -20.471729 10.920389 35.398970
979
root -0.863902 14.610750 -3.650680 52.013632 -39.839274 21.124944
RightUpLeg -181.591889 -26.692716 33.499115
RightLeg 100.488137 -0.000000 -0.000000
RightFoot 1.993310 33.498562 33.323988
RightToeBase 33.093100 -0.000000 -0.000000
LeftUpLeg -28.238932 26.233036 18.870605
LeftLeg 19.557366 -0.000000 -0.000000
LeftFoot -35.467905 18.342984 -25.605997
LeftToeBase 10.540431 -0.000000 -0.000000
Spine -29.109494 11.683935 20.948152
RightShoulder -6.510825 24.921581 -21.541352
RightArm 10.950510 -44.210486 54.266481
RightForeArm -5.702041 -0.000000 4.178058
RightHand 53.211635 -0.000000 -39.667692
RightHandThumb1 -24.326973 -0.000000 -32.862282
LeftShoulder -14.340705 -18.055673 66.083839
LeftArm 66.758507 -41.343404 -19.401345
LeftForeArm 20.167198 0.000000 19.118909
LeftHand -19.617333 -0.000000 12.622588
LeftHandThumb1 -26.253704 0.000000 33.147579
Head -20.383828 10.964786 35.198262
980
root -0.863118 14.647403 -3.671174 51.757896 -39.703703 21.408741
RightUpLeg -181.565100 -26.938977 33.430257
RightLeg 100.437999 -0.000000 -0.000000
RightFoot 1.522555 33.425128 32.898970
RightToeBase 33.185217 -0.000000 -0.000000
LeftUpLeg -28.482177 26.259452 18.695909
LeftLeg 19.714986 -0.000000 -0.000000
LeftFoot -35.040394 17.689346 -26.493082
LeftToeBase 10.294208 -0.000000 -0.000000
Spine -28.840443 11.403247 20.980516
RightShoulder -6.415560 24.792567 -21.743509
RightArm 10.928522 -44.375147 54.263180
RightForeArm -5.409402 -0.000000 4.599398
RightHand 52.950372 -0.000000 -39.054929
RightHandThumb1 -24.326973 -0.000000 -32.862282
LeftShoulder -14.173718 -17.841220 65.936692
LeftArm 66.657294 -41.252583 -19.659318
LeftForeArm 19.889589 -0.000000 19.066989
LeftHand -19.409012 -0.000000 12.378897
LeftHandThumb1 -26.253704 0.000000 33.147579
Head -20.316323 11.001090 35.031372
981
root -0.861471 14.691785 -3.690327 51.456832 -39.607113 21.689922
RightUpLeg -181.444977 -27.167233 33.316411
RightLeg 100.350219 -0.000000 -0.000000
RightFoot 0.785229 33.410080 32.109889
RightToeBase 33.550742 -0.000000 -0.000000
LeftUpLeg -28.682007 26.320850 18.474604
LeftLeg 19.855119 -0.000000 -0.000000
LeftFoot -34.535688 17.208426 -27.039845
LeftToeBase 10.019469 -0.000000 -0.000000
Spine -28.473069 11.144834 21.010400
RightShoulder -6.373569 24.541010 -21.909246
RightArm 11.174770 -44.495016 54.059204
RightForeArm -5.112045 0.000000 4.961019
RightHand 52.634890 0.000000 -38.804780
RightHandThumb1 -24.326973 -0.000000 -32.862282
LeftShoulder -14.060483 -17.648285 65.791856
LeftArm 66.601407 -41.158519 -19.953907
LeftForeArm 19.771709 -0.000000 19.030531
LeftHand -19.351618 0.000000 12.201490
LeftHandThumb1 -26.253704 0.000000 33.147579
Head -20.324391 11.081260 34.841596
982
root -0.865940 14.736035 -3.715787 51.243241 -39.487709 21.888276
RightUpLeg -181.306054 -27.354658 33.229357
RightLeg 100.303356 -0.000000 -0.000000
RightFoot 0.430219 33.355111 31.727205
RightToeBase 33.179244 -0.000000 -0.000000
LeftUpLeg -28.927228 26.478779 18.298329
LeftLeg 20.023245 -0.000000 -0.000000
LeftFoot -33.943702 16.722016 -27.583132
LeftToeBase 9.707466 -0.000000 -0.000000
Spine -28.120148 10.940174 21.083073
RightShoulder -6.349522 24.320895 -22.047400
RightArm 11.488379 -44.729062 53.837886
RightForeArm -4.755870 -0.000000 5.131704
RightHand 52.425194 -0.000000 -39.034756
RightHandThumb1 -24.326973 -0.000000 -32.862282
LeftShoulder -13.948098 -17.501441 65.672506
LeftArm 66.537217 -41.023323 -20.216970
LeftForeArm 19.682481 0.000000 18.940047
LeftHand -19.217773 -0.000000 12.121920
LeftHandThumb1 -26.253704 0.000000 33.147579
Head -20.349314 11.172599 34.631435
983
root -0.873070 14.784112 -3.740828 51.049165 -39.354918 22.048813
RightUpLeg -181.135512 -27.542153 33.158992
RightLeg 100.231893 -0.000000 -0.000000
RightFoot 0.023313 33.332443 31.312836
RightToeBase 33.109114 -0.000000 -0.000000
LeftUpLeg -29.173687 26.634122 18.161407
LeftLeg 20.213668 -0.000000 -0.000000
LeftFoot -33.402091 16.227399 -28.209722
LeftToeBase 9.601242 -0.000000 -0.000000
Spine -27.756006 10.703149 21.232429
RightShoulder -6.271684 24.219211 -22.181629
RightArm 11.742703 -44.952533 53.697597
RightForeArm -4.390165 0.000000 5.209979
RightHand 52.393783 0.000000 -39.023407
RightHandThumb1 -24.326973 -0.000000 -32.862282
LeftShoulder -13.810070 -17.362287 65.522072
LeftArm 66.350391 -40.844053 -20.303733
LeftForeArm 19.651485 -0.000000 18.885378
LeftHand -19.211437 -0.000000 11.997894
LeftHandThumb1 -26.253704 0.000000 33.147579
Head -20.286569 11.322605 34.407628
984
root -0.885202 14.835364 -3.771640 50.920390 -39.241228 22.185187
RightUpLeg -180.978651 -27.688864 33.053896
RightLeg 100.184814 -0.000000 -0.000000
RightFoot -0.390860 33.309026 30.702714
RightToeBase 32.824658 -0.000000 -0.000000
LeftUpLeg -29.441787 26.794257 18.028284
LeftLeg 20.364795 -0.000000 -0.000000
LeftFoot -32.802616 15.751584 -28.791243
LeftToeBase 9.367189 -0.000000 -0.000000
Spine -27.435732 10.569145 21.304185
RightShoulder -6.295306 24.176001 -22.313917
RightArm 11.963895 -45.266045 53.590358
RightForeArm -4.035722 -0.000000 5.222353
RightHand 52.258928 -0.000000 -39.187814
RightHandThumb1 -24.326973 -0.000000 -32.862282
LeftShoulder -13.688720 -17.289499 65.490515
LeftArm 66.228223 -40.615872 -20.532717
LeftForeArm 19.662886 -0.000000 18.801134
LeftHand -19.166839 0.000000 11.977639
LeftHandThumb1 -26.253704 0.000000 33.147579
Head -20.234058 11.406673 34.273953
985
root -0.896821 14.895257 -3.804472 50.778718 -39.050216 22.347919
RightUpLeg -180.811753 -27.877678 33.018230
RightLeg 100.089647 -0.000000 -0.000000
RightFoot -0.845042 33.251043 30.094511
RightToeBase 32.714752 -0.000000 -0.000000
LeftUpLeg -29.767951 26.767231 17.972582
LeftLeg 20.589880 -0.000000 -0.000000
LeftFoot -32.153941 15.460709 -29.297873
LeftToeBase 9.208110 -0.000000 -0.000000
Spine -27.129180 10.422851 21.414264
RightShoulder -6.336676 24.031920 -22.485251
RightArm 12.252347 -45.489327 53.443375
RightForeArm -3.736000 -0.000000 5.269865
RightHand 52.068213 0.000000 -39.149075
RightHandThumb1 -24.326973 -0.000000 -32.862282
LeftShoulder -13.532437 -17.296438 65.458014
LeftArm 66.056302 -40.360667 -20.704994
LeftForeArm 19.651118 -0.000000 18.718888
LeftHand -19.137056 -0.000000 12.007273
LeftHandThumb1 -26.253704 0.000000 33.147579
Head -20.141245 11.465357 34.113583
986
root -0.913132 14.959218 -3.838595 50.759585 -38.890590 22.432393
RightUpLeg -180.652487 -27.989938 32.983040
RightLeg 99.971901 -0.000000 -0.000000
RightFoot -1.319911 33.156828 29.316204
RightToeBase 32.772595 -0.000000 -0.000000
LeftUpLeg -30.114508 26.779549 17.945135
LeftLeg 20.782456 -0.000000 -0.000000
LeftFoot -31.447153 15.170895 -29.939076
LeftToeBase 8.883907 -0.000000 -0.000000
Spine -26.870427 10.371313 21.525435
RightShoulder -6.451347 24.188749 -22.735178
RightArm 12.203261 -45.847381 53.586535
RightForeArm -3.473781 -0.000000 5.341938
RightHand 51.881819 -0.000000 -38.871731
RightHandThumb1 -24.326973 -0.000000 -32.862282
LeftShoulder -13.388233 -17.269936 65.450174
LeftArm 65.865778 -40.098465 -20.821367
LeftForeArm 19.606575 -0.000000 18.610292
LeftHand -19.082531 -0.000000 11.822712
LeftHandThumb1 -26.253704 0.000000 33.147579
Head -20.047263 11.611436 33.977994
987
root -0.934114 15.026763 -3.879353 50.719244 -38.751987 22.570459
RightUpLeg -180.463287 -28.112190 32.844402
RightLeg 99.850141 -0.000000 -0.000000
RightFoot -1.639661 32.867367 28.902708
RightToeBase 32.642817 -0.000000 -0.000000
LeftUpLeg -30.473004 26.780923 17.881066
LeftLeg 20.950314 -0.000000 -0.000000
LeftFoot -30.648410 14.807172 -30.588723
LeftToeBase 8.348389 -0.000000 -0.000000
Spine -26.624809 10.330485 21.529604
RightShoulder -6.613284 24.233912 -22.977860
RightArm 12.160643 -46.053234 53.722075
RightForeArm -3.378880 -0.000000 5.566153
RightHand 51.471724 -0.000000 -38.352093
RightHandThumb1 -24.326973 -0.000000 -32.862282
LeftShoulder -13.250865 -17.157727 65.500788
LeftArm 65.745765 -39.941163 -20.981220
LeftForeArm 19.484905 -0.000000 18.489464
LeftHand -19.041031 -0.000000 11.782239
LeftHandThumb1 -26.253704 0.000000 33.147579
Head -20.006070 11.757593 33.982570
988
root -0.958842 15.100247 -3.923469 50.741332 -38.609954 22.682119
RightUpLeg -180.277679 -28.225948 32.714556
RightLeg 99.707889 -0.000000 -0.000000
RightFoot -1.966691 32.548687 28.475384
RightToeBase 32.532875 -0.000000 -0.000000
LeftUpLeg -30.883501 26.751157 17.845209
LeftLeg 21.150849 -0.000000 -0.000000
LeftFoot -29.828996 14.521121 -31.190574
LeftToeBase 7.899335 -0.000000 -0.000000
Spine -26.400686 10.293872 21.576949
RightShoulder -6.747278 24.433728 -23.279728
RightArm 11.894480 -46.351607 54.035110
RightForeArm -3.222349 0.000000 5.897984
RightHand 50.896622 -0.000000 -37.530685
RightHandThumb1 -24.326973 -0.000000 -32.862282
LeftShoulder -13.110012 -17.048593 65.516006
LeftArm 65.570735 -39.774119 -20.997541
LeftForeArm 19.295471 -0.000000 18.331339
LeftHand -18.896800 -0.000000 11.758013
LeftHandThumb1 -26.253704 0.000000 33.147579
Head -19.923226 11.776756 33.930233
